<?xml version="1.0" encoding="UTF-8"?>
<svg version="1.1" xmlns="http://www.w3.org/2000/svg" width="40" height="40">
<path d="M0 0 C13.2 0 26.4 0 40 0 C40 13.2 40 26.4 40 40 C26.8 40 13.6 40 0 40 C0 26.8 0 13.6 0 0 Z " fill="#DFD9C1" transform="translate(0,0)"/>
<path d="M0 0 C13.2 0 26.4 0 40 0 C40 13.2 40 26.4 40 40 C38.35 40 36.7 40 35 40 C35.33 39.01 35.66 38.02 36 37 C36.66 37 37.32 37 38 37 C37.74605469 36.45214844 37.49210937 35.90429688 37.23046875 35.33984375 C34.39093686 28.79934894 32.9305915 22.3082125 31.7109375 15.3203125 C31.10340468 12.48293394 30.54953739 10.42586752 29 8 C24.67213324 5.37705045 19.90184685 5.57375245 15 6 C12.05570224 6.57218132 12.05570224 6.57218132 10 8 C9.10043764 10.71770997 8.81588415 13.38586969 8.60546875 16.23046875 C7.2521937 32.48779112 7.2521937 32.48779112 3 40 C2.01 40 1.02 40 0 40 C0 26.8 0 13.6 0 0 Z " fill="#FDFCFB" transform="translate(0,0)"/>
<path d="M0 0 C1.29579166 2.49965216 2.19707426 4.96788408 3.04296875 7.65234375 C3.8752715 10.32208207 3.8752715 10.32208207 7 12 C7.25660094 15.07921132 7.39431504 17.21136993 6 20 C-3.9 20 -13.8 20 -24 20 C-21 11 -21 11 -19.0625 8.875 C-17 8 -17 8 -14.8125 8.125 C-13.9153125 8.558125 -13.9153125 8.558125 -13 9 C-12.67 9.99 -12.34 10.98 -12 12 C-11.34 11.67 -10.68 11.34 -10 11 C-9.34 11.66 -8.68 12.32 -8 13 C-5.47636012 12.37466625 -5.47636012 12.37466625 -3 11 C-2.10613836 8.45224694 -2.10613836 8.45224694 -2 6 C-2.93972656 6.03480469 -2.93972656 6.03480469 -3.8984375 6.0703125 C-5.12433594 6.09738281 -5.12433594 6.09738281 -6.375 6.125 C-7.18710937 6.14820313 -7.99921875 6.17140625 -8.8359375 6.1953125 C-11 6 -11 6 -13 4 C-13 3.01 -13 2.02 -13 1 C-4.35977337 -1.93767705 -4.35977337 -1.93767705 0 0 Z " fill="#E8E3BE" transform="translate(27,20)"/>
<path d="M0 0 C2.31 0 4.62 0 7 0 C6.25 4.75 6.25 4.75 4 7 C4.99 7.66 5.98 8.32 7 9 C5.68 9.33 4.36 9.66 3 10 C3.66423207 12.03883888 3.66423207 12.03883888 5 14 C7.18541552 14.6993514 7.18541552 14.6993514 9.625 14.75 C10.85089844 14.83507812 10.85089844 14.83507812 12.1015625 14.921875 C12.72804688 14.94765625 13.35453125 14.9734375 14 15 C14 16.65 14 18.3 14 20 C7.375 23 7.375 23 4 23 C3.525625 22.34 3.05125 21.68 2.5625 21 C2.046875 20.34 1.53125 19.68 1 19 C-0.32 19 -1.64 19 -3 19 C-3.33 19 -3.66 19 -4 19 C-3.67 13.72 -3.34 8.44 -3 3 C-2.34 3 -1.68 3 -1 3 C-0.67 2.01 -0.34 1.02 0 0 Z " fill="#D0D4AF" transform="translate(11,11)"/>
<path d="M0 0 C0.18175781 0.76183594 0.36351562 1.52367187 0.55078125 2.30859375 C1.93158615 7.9805154 3.45338753 13.50738091 5.37109375 19.01953125 C6.20430984 21.64338564 6.65043707 24.27340917 7 27 C6.34 27 5.68 27 5 27 C4.67 27.99 4.34 28.98 4 30 C3.34 30 2.68 30 2 30 C2.09765625 27.98177083 2.1953125 25.96354167 2.29296875 23.9453125 C2.19628906 23.30335937 2.09960938 22.66140625 2 22 C1.01 21.34 0.02 20.68 -1 20 C-1.94921875 17.6171875 -1.94921875 17.6171875 -2.6875 14.875 C-2.93886719 13.96492188 -3.19023437 13.05484375 -3.44921875 12.1171875 C-3.72185547 11.06917969 -3.72185547 11.06917969 -4 10 C-5.32 10 -6.64 10 -8 10 C-8 9.34 -8 8.68 -8 8 C-6.68 8 -5.36 8 -4 8 C-4.33 6.68 -4.66 5.36 -5 4 C-5.66 4 -6.32 4 -7 4 C-7.33 4.66 -7.66 5.32 -8 6 C-8 4.35 -8 2.7 -8 1 C-2.25 0 -2.25 0 0 0 Z " fill="#D1D7B2" transform="translate(31,10)"/>
<path d="M0 0 C3.99473314 1.8512178 4.92733494 5.26791316 6.5625 9.1875 C6.8925 9.8475 7.2225 10.5075 7.5625 11.1875 C4.14017028 12.32827657 1.47576783 12.28565117 -2.125 12.25 C-3.89423828 12.23646484 -3.89423828 12.23646484 -5.69921875 12.22265625 C-6.60285156 12.21105469 -7.50648438 12.19945312 -8.4375 12.1875 C-8.01155412 10.74653414 -7.57123367 9.30981288 -7.125 7.875 C-6.88136719 7.07449219 -6.63773437 6.27398437 -6.38671875 5.44921875 C-4.97401349 2.08314326 -3.73260254 0.28712327 0 0 Z " fill="#D3D3B5" transform="translate(11.4375,27.8125)"/>
<path d="M0 0 C0.66 0.33 1.32 0.66 2 1 C3.53668865 1.22467831 5.07968054 1.40796805 6.625 1.5625 C7.44226562 1.64628906 8.25953125 1.73007812 9.1015625 1.81640625 C9.72804688 1.87699219 10.35453125 1.93757813 11 2 C11 3.65 11 5.3 11 7 C4.375 10 4.375 10 1 10 C-0.83691257 6.21812119 -1.15837626 4.05431692 0 0 Z " fill="#E6DBBD" transform="translate(14,24)"/>
<path d="M0 0 C0.042721 1.66611905 0.04063832 3.33382885 0 5 C-1.66561399 6.66561399 -3.65962705 6.17115945 -5.9375 6.1875 C-6.83339844 6.20167969 -7.72929687 6.21585938 -8.65234375 6.23046875 C-11 6 -11 6 -13 4 C-13 3.01 -13 2.02 -13 1 C-8.20862412 -0.6290678 -4.94367454 -1.20577428 0 0 Z " fill="#F6E4D8" transform="translate(27,20)"/>
<path d="M0 0 C9.41002278 -0.3690205 9.41002278 -0.3690205 14 2 C14 2.66 14 3.32 14 4 C8.63904667 5.12862175 3.44693314 5.09688221 -2 5 C-1.34 3.35 -0.68 1.7 0 0 Z " fill="#D3D7B4" transform="translate(15,5)"/>
<path d="M0 0 C0.66 0 1.32 0 2 0 C1.25 4.75 1.25 4.75 -1 7 C-0.01 7.66 0.98 8.32 2 9 C0.68 9.33 -0.64 9.66 -2 10 C-2.33 12.97 -2.66 15.94 -3 19 C-3.99 19 -4.98 19 -6 19 C-6 16.36 -6 13.72 -6 11 C-5.34 10.67 -4.68 10.34 -4 10 C-4.33 8.35 -4.66 6.7 -5 5 C-3.35 4.67 -1.7 4.34 0 4 C0 2.68 0 1.36 0 0 Z " fill="#D3C6A8" transform="translate(16,11)"/>
<path d="M0 0 C5.875 0.875 5.875 0.875 7 2 C7.23529412 7.52941176 7.23529412 7.52941176 6 10 C4.35 10 2.7 10 1 10 C1.66 9.01 2.32 8.02 3 7 C2.505 6.401875 2.01 5.80375 1.5 5.1875 C0 3 0 3 0 0 Z " fill="#EEECE5" transform="translate(27,30)"/>
<path d="M0 0 C0.804375 0.4640625 0.804375 0.4640625 1.625 0.9375 C4.3984957 2.17827439 7.00042837 2.5909675 10 3 C10.33 3.99 10.66 4.98 11 6 C9.1875 6.625 9.1875 6.625 7 7 C6.01 6.34 5.02 5.68 4 5 C4.33 6.32 4.66 7.64 5 9 C3.35 9 1.7 9 0 9 C0.66 8.34 1.32 7.68 2 7 C1.34 6.34 0.68 5.68 0 5 C-0.125 2.375 -0.125 2.375 0 0 Z " fill="#F1E6DB" transform="translate(16,31)"/>
<path d="M0 0 C0.66 0 1.32 0 2 0 C4.03435531 3.72965139 5 5.66905042 5 10 C4.34 10 3.68 10 3 10 C2.67 10.99 2.34 11.98 2 13 C1.34 13 0.68 13 0 13 C0.06510417 10.98177083 0.13020833 8.96354167 0.1953125 6.9453125 C0.18331689 4.76136355 0.18331689 4.76136355 -2 3 C-1.34 2.01 -0.68 1.02 0 0 Z " fill="#D4D9B7" transform="translate(33,27)"/>
<path d="M0 0 C4.80373017 5.92460054 6.24642453 8.48405194 6 16 C4.35 16 2.7 16 1 16 C1.33 15.01 1.66 14.02 2 13 C2.66 13 3.32 13 4 13 C3.71125 12.31292969 3.4225 11.62585937 3.125 10.91796875 C2.568125 9.56638672 2.568125 9.56638672 2 8.1875 C1.62875 7.29417969 1.2575 6.40085937 0.875 5.48046875 C0 3 0 3 0 0 Z " fill="#F6F4EF" transform="translate(34,24)"/>
<path d="M0 0 C0.99 0 1.98 0 3 0 C3.66 2.97 4.32 5.94 5 9 C3.35 9 1.7 9 0 9 C-0.87890625 2.84765625 -0.87890625 2.84765625 -1 1 C-0.67 0.67 -0.34 0.34 0 0 Z " fill="#EFEDE7" transform="translate(9,31)"/>
<path d="M0 0 C2.64 0 5.28 0 8 0 C7.67 1.65 7.34 3.3 7 5 C5.1875 5.6875 5.1875 5.6875 3 6 C1.25 4.75 1.25 4.75 0 3 C0 2.01 0 1.02 0 0 Z " fill="#DCB372" transform="translate(17,27)"/>
<path d="M0 0 C0.66 0 1.32 0 2 0 C4.43425238 4.96993194 5.34615998 8.34605369 5 14 C2.49701566 11.06171403 1.53069061 8.82097239 1 5 C-0.32 5 -1.64 5 -3 5 C-3 4.34 -3 3.68 -3 3 C-1.68 3 -0.36 3 1 3 C0.67 2.01 0.34 1.02 0 0 Z " fill="#C7BC9C" transform="translate(26,15)"/>
<path d="M0 0 C0.33 1.65 0.66 3.3 1 5 C-1.91482778 5.80967438 -3.46113217 6.21845993 -6.3125 5.0625 C-6.869375 4.711875 -7.42625 4.36125 -8 4 C-3.375 0 -3.375 0 0 0 Z " fill="#E7E0C6" transform="translate(22,14)"/>
<path d="M0 0 C0.70125 0.185625 1.4025 0.37125 2.125 0.5625 C5.33888698 1.05156976 7.83560336 0.66231558 11 0 C9.9375 2 9.9375 2 8 4 C4.3125 4.25 4.3125 4.25 1 4 C0.67 2.68 0.34 1.36 0 0 Z " fill="#DBD2C9" transform="translate(20,36)"/>
<path d="M0 0 C0.66 0.33 1.32 0.66 2 1 C1.67 3.64 1.34 6.28 1 9 C0.01 9 -0.98 9 -2 9 C-2 6.36 -2 3.72 -2 1 C-1.34 0.67 -0.68 0.34 0 0 Z " fill="#C4BF9B" transform="translate(12,21)"/>
<path d="M0 0 C2 3 2 3 3 6 C2.01 6 1.02 6 0 6 C0 5.34 0 4.68 0 4 C-1.98 4 -3.96 4 -6 4 C-5.34 3.34 -4.68 2.68 -4 2 C-2.68 2 -1.36 2 0 2 C0 1.34 0 0.68 0 0 Z " fill="#E7DCD0" transform="translate(26,30)"/>
<path d="M0 0 C0.66 0 1.32 0 2 0 C2 1.65 2 3.3 2 5 C0.35 5 -1.3 5 -3 5 C-2.67 4.01 -2.34 3.02 -2 2 C-1.34 2 -0.68 2 0 2 C0 1.34 0 0.68 0 0 Z " fill="#EAEDEA" transform="translate(38,35)"/>
<path d="M0 0 C0.99 0 1.98 0 3 0 C3.33 2.31 3.66 4.62 4 7 C3.01 6.67 2.02 6.34 1 6 C0 3 0 3 0 0 Z " fill="#E6E2DB" transform="translate(9,31)"/>
</svg>
